<?xml version="1.0" encoding="UTF-8"?>
<svg xmlns="http://www.w3.org/2000/svg" version="1.1" width="100" height="100" viewBox="0 0 100 100"><rect x="0" y="0" width="100" height="100" fill="#ffffff"/><g transform="scale(4)"><g transform="translate(0,0)"><path fill-rule="evenodd" d="M9 0L9 1L10 1L10 2L8 2L8 3L9 3L9 4L10 4L10 5L9 5L9 6L8 6L8 8L4 8L4 9L3 9L3 8L0 8L0 11L1 11L1 12L2 12L2 10L3 10L3 13L1 13L1 14L0 14L0 15L1 15L1 16L0 16L0 17L1 17L1 16L2 16L2 17L5 17L5 16L3 16L3 15L4 15L4 14L5 14L5 15L7 15L7 16L6 16L6 17L8 17L8 21L9 21L9 22L8 22L8 25L9 25L9 24L10 24L10 25L12 25L12 24L14 24L14 25L15 25L15 24L16 24L16 25L17 25L17 23L18 23L18 22L16 22L16 23L15 23L15 22L14 22L14 21L13 21L13 20L12 20L12 19L11 19L11 20L12 20L12 21L9 21L9 20L10 20L10 18L12 18L12 16L14 16L14 17L16 17L16 18L15 18L15 21L19 21L19 24L20 24L20 25L21 25L21 24L22 24L22 25L23 25L23 24L24 24L24 25L25 25L25 22L24 22L24 20L25 20L25 18L24 18L24 17L25 17L25 14L23 14L23 15L22 15L22 16L21 16L21 13L23 13L23 12L25 12L25 11L21 11L21 10L20 10L20 11L19 11L19 8L16 8L16 9L15 9L15 5L16 5L16 4L15 4L15 5L14 5L14 7L13 7L13 6L12 6L12 8L11 8L11 6L10 6L10 5L11 5L11 4L12 4L12 3L13 3L13 4L14 4L14 3L13 3L13 0L12 0L12 1L10 1L10 0ZM14 0L14 1L15 1L15 2L16 2L16 3L17 3L17 2L16 2L16 0ZM11 2L11 3L12 3L12 2ZM9 6L9 7L10 7L10 6ZM16 6L16 7L17 7L17 6ZM9 8L9 10L10 10L10 11L8 11L8 9L5 9L5 10L4 10L4 11L5 11L5 12L7 12L7 13L5 13L5 14L7 14L7 15L8 15L8 17L9 17L9 18L10 18L10 17L9 17L9 14L11 14L11 13L12 13L12 12L13 12L13 15L14 15L14 16L17 16L17 15L18 15L18 16L20 16L20 15L19 15L19 13L21 13L21 12L19 12L19 11L18 11L18 12L17 12L17 13L16 13L16 14L15 14L15 15L14 15L14 12L15 12L15 11L14 11L14 10L15 10L15 9L14 9L14 10L13 10L13 8L12 8L12 10L10 10L10 8ZM22 8L22 9L23 9L23 10L24 10L24 9L23 9L23 8ZM5 10L5 11L7 11L7 10ZM11 11L11 12L12 12L12 11ZM13 11L13 12L14 12L14 11ZM8 12L8 13L7 13L7 14L8 14L8 13L9 13L9 12ZM18 12L18 13L19 13L19 12ZM1 14L1 15L2 15L2 14ZM16 14L16 15L17 15L17 14ZM11 15L11 16L12 16L12 15ZM23 15L23 16L22 16L22 18L23 18L23 17L24 17L24 15ZM17 17L17 20L20 20L20 17ZM13 18L13 19L14 19L14 18ZM18 18L18 19L19 19L19 18ZM22 19L22 20L21 20L21 21L22 21L22 22L20 22L20 24L21 24L21 23L22 23L22 24L23 24L23 23L24 23L24 22L23 22L23 20L24 20L24 19ZM10 22L10 24L12 24L12 23L11 23L11 22ZM13 22L13 23L14 23L14 22ZM22 22L22 23L23 23L23 22ZM0 0L0 7L7 7L7 0ZM1 1L1 6L6 6L6 1ZM2 2L2 5L5 5L5 2ZM18 0L18 7L25 7L25 0ZM19 1L19 6L24 6L24 1ZM20 2L20 5L23 5L23 2ZM0 18L0 25L7 25L7 18ZM1 19L1 24L6 24L6 19ZM2 20L2 23L5 23L5 20Z" fill="#000000"/></g></g></svg>
