<?xml version="1.0" encoding="UTF-8"?>
<svg xmlns="http://www.w3.org/2000/svg" version="1.1" width="100" height="100" viewBox="0 0 100 100"><rect x="0" y="0" width="100" height="100" fill="#ffffff"/><g transform="scale(4)"><g transform="translate(0,0)"><path fill-rule="evenodd" d="M10 0L10 2L11 2L11 0ZM12 0L12 1L14 1L14 0ZM15 0L15 1L16 1L16 0ZM8 1L8 2L9 2L9 1ZM12 2L12 4L13 4L13 2ZM14 2L14 3L16 3L16 2ZM8 3L8 4L9 4L9 5L8 5L8 7L9 7L9 8L6 8L6 9L5 9L5 8L0 8L0 9L2 9L2 10L1 10L1 12L2 12L2 13L0 13L0 17L1 17L1 14L2 14L2 15L4 15L4 16L2 16L2 17L4 17L4 16L6 16L6 17L8 17L8 19L11 19L11 17L12 17L12 18L13 18L13 19L12 19L12 21L13 21L13 20L14 20L14 21L15 21L15 23L14 23L14 24L16 24L16 21L17 21L17 24L20 24L20 23L21 23L21 25L22 25L22 21L24 21L24 23L25 23L25 21L24 21L24 19L25 19L25 16L24 16L24 15L25 15L25 13L23 13L23 14L21 14L21 12L23 12L23 10L21 10L21 9L22 9L22 8L21 8L21 9L20 9L20 8L19 8L19 9L20 9L20 10L18 10L18 8L17 8L17 9L16 9L16 8L15 8L15 6L14 6L14 8L15 8L15 10L13 10L13 9L12 9L12 7L13 7L13 5L11 5L11 6L10 6L10 4L11 4L11 3ZM14 4L14 5L15 5L15 4ZM16 4L16 5L17 5L17 4ZM9 6L9 7L10 7L10 6ZM11 6L11 7L12 7L12 6ZM16 6L16 7L17 7L17 6ZM10 8L10 9L6 9L6 10L5 10L5 9L4 9L4 10L3 10L3 12L4 12L4 11L5 11L5 14L4 14L4 13L3 13L3 14L4 14L4 15L5 15L5 14L9 14L9 15L8 15L8 17L9 17L9 15L11 15L11 14L13 14L13 15L12 15L12 17L14 17L14 18L15 18L15 19L14 19L14 20L15 20L15 21L16 21L16 20L15 20L15 19L16 19L16 18L15 18L15 17L16 17L16 16L15 16L15 13L16 13L16 15L17 15L17 13L18 13L18 10L15 10L15 11L13 11L13 10L12 10L12 9L11 9L11 8ZM23 8L23 9L24 9L24 10L25 10L25 9L24 9L24 8ZM10 9L10 11L11 11L11 9ZM6 10L6 11L7 11L7 12L6 12L6 13L7 13L7 12L8 12L8 13L11 13L11 12L9 12L9 11L7 11L7 10ZM12 11L12 13L15 13L15 12L17 12L17 11L15 11L15 12L13 12L13 11ZM20 11L20 12L19 12L19 14L20 14L20 15L21 15L21 17L22 17L22 18L21 18L21 19L22 19L22 20L23 20L23 18L24 18L24 16L23 16L23 17L22 17L22 15L21 15L21 14L20 14L20 12L21 12L21 11ZM6 15L6 16L7 16L7 15ZM18 15L18 16L19 16L19 15ZM10 16L10 17L11 17L11 16ZM17 17L17 20L20 20L20 17ZM18 18L18 19L19 19L19 18ZM8 20L8 25L9 25L9 23L10 23L10 24L11 24L11 25L12 25L12 23L13 23L13 22L11 22L11 23L10 23L10 22L9 22L9 21L10 21L10 20ZM19 21L19 22L18 22L18 23L19 23L19 22L20 22L20 21ZM24 24L24 25L25 25L25 24ZM0 0L0 7L7 7L7 0ZM1 1L1 6L6 6L6 1ZM2 2L2 5L5 5L5 2ZM18 0L18 7L25 7L25 0ZM19 1L19 6L24 6L24 1ZM20 2L20 5L23 5L23 2ZM0 18L0 25L7 25L7 18ZM1 19L1 24L6 24L6 19ZM2 20L2 23L5 23L5 20Z" fill="#000000"/></g></g></svg>
