<?xml version="1.0" encoding="UTF-8"?>
<svg xmlns="http://www.w3.org/2000/svg" version="1.1" width="100" height="100" viewBox="0 0 100 100"><rect x="0" y="0" width="100" height="100" fill="#ffffff"/><g transform="scale(4)"><g transform="translate(0,0)"><path fill-rule="evenodd" d="M9 0L9 1L8 1L8 3L9 3L9 4L8 4L8 8L6 8L6 9L7 9L7 10L6 10L6 11L4 11L4 10L5 10L5 9L4 9L4 8L3 8L3 9L2 9L2 8L0 8L0 9L2 9L2 10L3 10L3 11L2 11L2 12L4 12L4 14L2 14L2 13L1 13L1 12L0 12L0 13L1 13L1 14L0 14L0 15L1 15L1 16L0 16L0 17L7 17L7 16L4 16L4 14L5 14L5 12L6 12L6 13L9 13L9 12L8 12L8 8L10 8L10 10L9 10L9 11L11 11L11 10L12 10L12 9L11 9L11 8L10 8L10 7L11 7L11 6L12 6L12 8L14 8L14 9L13 9L13 11L14 11L14 13L15 13L15 14L16 14L16 15L15 15L15 16L14 16L14 15L13 15L13 12L12 12L12 13L10 13L10 14L8 14L8 16L9 16L9 17L8 17L8 19L9 19L9 20L10 20L10 21L11 21L11 22L9 22L9 21L8 21L8 22L9 22L9 23L8 23L8 25L9 25L9 24L10 24L10 23L11 23L11 25L12 25L12 24L14 24L14 25L15 25L15 24L14 24L14 23L16 23L16 24L18 24L18 22L17 22L17 21L19 21L19 22L21 22L21 24L20 24L20 25L21 25L21 24L22 24L22 25L23 25L23 24L22 24L22 22L21 22L21 20L25 20L25 19L24 19L24 18L22 18L22 17L23 17L23 15L22 15L22 16L21 16L21 15L20 15L20 16L17 16L17 15L19 15L19 14L20 14L20 13L19 13L19 12L21 12L21 13L22 13L22 14L23 14L23 10L24 10L24 8L22 8L22 9L23 9L23 10L22 10L22 11L20 11L20 10L21 10L21 8L18 8L18 9L17 9L17 8L16 8L16 7L17 7L17 6L16 6L16 5L17 5L17 4L16 4L16 5L14 5L14 4L13 4L13 5L14 5L14 7L13 7L13 6L12 6L12 5L11 5L11 6L10 6L10 5L9 5L9 4L12 4L12 3L13 3L13 2L14 2L14 0L12 0L12 1L11 1L11 2L9 2L9 1L10 1L10 0ZM15 0L15 1L16 1L16 3L17 3L17 0ZM9 6L9 7L10 7L10 6ZM15 6L15 7L16 7L16 6ZM15 8L15 9L14 9L14 11L17 11L17 13L16 13L16 12L15 12L15 13L16 13L16 14L17 14L17 13L18 13L18 14L19 14L19 13L18 13L18 12L19 12L19 11L17 11L17 9L16 9L16 8ZM3 9L3 10L4 10L4 9ZM15 9L15 10L16 10L16 9ZM18 9L18 10L20 10L20 9ZM6 11L6 12L7 12L7 11ZM24 11L24 12L25 12L25 11ZM1 14L1 15L2 15L2 14ZM6 14L6 15L7 15L7 14ZM10 14L10 15L9 15L9 16L12 16L12 17L9 17L9 19L10 19L10 18L11 18L11 19L12 19L12 20L13 20L13 21L14 21L14 22L15 22L15 21L16 21L16 19L15 19L15 18L14 18L14 17L13 17L13 16L12 16L12 14ZM24 14L24 17L25 17L25 14ZM17 17L17 20L20 20L20 17ZM13 18L13 20L14 20L14 21L15 21L15 20L14 20L14 18ZM18 18L18 19L19 19L19 18ZM23 21L23 22L24 22L24 25L25 25L25 22L24 22L24 21ZM0 0L0 7L7 7L7 0ZM1 1L1 6L6 6L6 1ZM2 2L2 5L5 5L5 2ZM18 0L18 7L25 7L25 0ZM19 1L19 6L24 6L24 1ZM20 2L20 5L23 5L23 2ZM0 18L0 25L7 25L7 18ZM1 19L1 24L6 24L6 19ZM2 20L2 23L5 23L5 20Z" fill="#000000"/></g></g></svg>
