<?xml version="1.0" encoding="UTF-8"?>
<svg xmlns="http://www.w3.org/2000/svg" version="1.1" width="100" height="100" viewBox="0 0 100 100"><rect x="0" y="0" width="100" height="100" fill="#ffffff"/><g transform="scale(4)"><g transform="translate(0,0)"><path fill-rule="evenodd" d="M8 0L8 1L9 1L9 2L10 2L10 3L11 3L11 1L13 1L13 0L11 0L11 1L9 1L9 0ZM15 0L15 1L16 1L16 0ZM12 2L12 4L11 4L11 5L10 5L10 4L9 4L9 5L10 5L10 8L9 8L9 6L8 6L8 8L9 8L9 9L8 9L8 10L6 10L6 11L5 11L5 8L3 8L3 9L2 9L2 8L0 8L0 10L3 10L3 9L4 9L4 12L1 12L1 11L0 11L0 17L1 17L1 15L3 15L3 16L2 16L2 17L3 17L3 16L4 16L4 17L5 17L5 16L6 16L6 17L7 17L7 16L9 16L9 17L8 17L8 18L9 18L9 19L10 19L10 20L8 20L8 22L9 22L9 21L10 21L10 23L8 23L8 25L9 25L9 24L10 24L10 25L11 25L11 24L10 24L10 23L11 23L11 19L12 19L12 21L14 21L14 24L13 24L13 25L18 25L18 24L19 24L19 25L25 25L25 24L24 24L24 23L25 23L25 21L24 21L24 19L25 19L25 16L24 16L24 15L25 15L25 13L24 13L24 10L25 10L25 8L24 8L24 10L23 10L23 9L19 9L19 8L18 8L18 9L17 9L17 8L16 8L16 7L17 7L17 2L15 2L15 3L14 3L14 2ZM12 4L12 5L11 5L11 7L12 7L12 9L10 9L10 10L8 10L8 11L6 11L6 12L8 12L8 13L9 13L9 11L10 11L10 10L12 10L12 11L14 11L14 12L13 12L13 13L11 13L11 12L10 12L10 14L9 14L9 15L10 15L10 16L11 16L11 17L9 17L9 18L11 18L11 17L14 17L14 18L12 18L12 19L13 19L13 20L14 20L14 19L16 19L16 18L15 18L15 17L16 17L16 16L18 16L18 13L16 13L16 12L17 12L17 9L15 9L15 10L14 10L14 9L13 9L13 7L14 7L14 6L15 6L15 7L16 7L16 6L15 6L15 5L16 5L16 4L15 4L15 5L13 5L13 4ZM12 5L12 7L13 7L13 5ZM6 8L6 9L7 9L7 8ZM12 9L12 10L13 10L13 9ZM18 9L18 11L19 11L19 12L20 12L20 13L19 13L19 14L20 14L20 16L21 16L21 20L22 20L22 21L23 21L23 22L21 22L21 21L18 21L18 22L17 22L17 21L16 21L16 23L15 23L15 24L18 24L18 23L19 23L19 22L20 22L20 23L21 23L21 24L22 24L22 23L23 23L23 22L24 22L24 21L23 21L23 19L24 19L24 18L23 18L23 19L22 19L22 16L23 16L23 13L22 13L22 12L23 12L23 11L21 11L21 10L20 10L20 11L19 11L19 9ZM4 12L4 13L5 13L5 12ZM1 13L1 14L2 14L2 13ZM6 13L6 14L5 14L5 15L4 15L4 14L3 14L3 15L4 15L4 16L5 16L5 15L6 15L6 16L7 16L7 15L6 15L6 14L7 14L7 13ZM20 13L20 14L21 14L21 16L22 16L22 13ZM10 14L10 15L11 15L11 16L12 16L12 15L14 15L14 17L15 17L15 15L17 15L17 14ZM17 17L17 20L20 20L20 17ZM18 18L18 19L19 19L19 18ZM12 22L12 23L13 23L13 22ZM0 0L0 7L7 7L7 0ZM1 1L1 6L6 6L6 1ZM2 2L2 5L5 5L5 2ZM18 0L18 7L25 7L25 0ZM19 1L19 6L24 6L24 1ZM20 2L20 5L23 5L23 2ZM0 18L0 25L7 25L7 18ZM1 19L1 24L6 24L6 19ZM2 20L2 23L5 23L5 20Z" fill="#000000"/></g></g></svg>
