<?xml version="1.0" encoding="UTF-8"?>
<svg xmlns="http://www.w3.org/2000/svg" version="1.1" width="100" height="100" viewBox="0 0 100 100"><rect x="0" y="0" width="100" height="100" fill="#ffffff"/><g transform="scale(4)"><g transform="translate(0,0)"><path fill-rule="evenodd" d="M8 0L8 4L10 4L10 3L11 3L11 4L12 4L12 2L11 2L11 0ZM12 0L12 1L14 1L14 3L16 3L16 4L14 4L14 7L13 7L13 5L11 5L11 6L10 6L10 7L9 7L9 5L8 5L8 7L9 7L9 8L10 8L10 7L11 7L11 6L12 6L12 8L11 8L11 9L9 9L9 10L8 10L8 9L7 9L7 8L4 8L4 9L3 9L3 10L2 10L2 8L0 8L0 10L2 10L2 11L4 11L4 9L7 9L7 10L6 10L6 11L5 11L5 12L2 12L2 13L1 13L1 11L0 11L0 14L2 14L2 16L0 16L0 17L4 17L4 16L3 16L3 15L5 15L5 14L6 14L6 15L7 15L7 14L8 14L8 15L9 15L9 16L5 16L5 17L8 17L8 18L9 18L9 19L8 19L8 21L9 21L9 22L10 22L10 21L11 21L11 20L12 20L12 21L13 21L13 22L15 22L15 23L14 23L14 24L13 24L13 23L12 23L12 24L10 24L10 23L8 23L8 25L12 25L12 24L13 24L13 25L15 25L15 24L16 24L16 23L17 23L17 22L18 22L18 23L19 23L19 25L21 25L21 24L24 24L24 25L25 25L25 23L24 23L24 22L25 22L25 21L24 21L24 20L25 20L25 19L24 19L24 20L23 20L23 18L22 18L22 19L21 19L21 17L23 17L23 16L21 16L21 15L22 15L22 9L24 9L24 10L23 10L23 12L25 12L25 8L21 8L21 9L20 9L20 8L19 8L19 9L16 9L16 11L15 11L15 6L16 6L16 8L17 8L17 6L16 6L16 5L17 5L17 2L15 2L15 1L17 1L17 0ZM9 2L9 3L10 3L10 2ZM12 8L12 9L11 9L11 10L9 10L9 11L8 11L8 12L9 12L9 13L8 13L8 14L9 14L9 13L10 13L10 17L11 17L11 18L12 18L12 17L13 17L13 18L14 18L14 17L13 17L13 16L15 16L15 18L16 18L16 16L17 16L17 15L15 15L15 14L18 14L18 16L19 16L19 15L21 15L21 14L20 14L20 13L19 13L19 14L18 14L18 12L21 12L21 10L20 10L20 9L19 9L19 10L20 10L20 11L18 11L18 10L17 10L17 11L16 11L16 13L15 13L15 11L14 11L14 10L13 10L13 11L12 11L12 12L11 12L11 13L10 13L10 11L11 11L11 10L12 10L12 9L14 9L14 8ZM6 11L6 12L5 12L5 13L3 13L3 14L5 14L5 13L6 13L6 14L7 14L7 13L6 13L6 12L7 12L7 11ZM17 11L17 12L18 12L18 11ZM12 12L12 13L13 13L13 14L15 14L15 13L14 13L14 12ZM23 13L23 14L25 14L25 13ZM12 15L12 16L11 16L11 17L12 17L12 16L13 16L13 15ZM24 15L24 18L25 18L25 15ZM17 17L17 20L20 20L20 17ZM18 18L18 19L19 19L19 18ZM10 19L10 20L9 20L9 21L10 21L10 20L11 20L11 19ZM12 19L12 20L13 20L13 19ZM14 19L14 21L16 21L16 22L17 22L17 21L16 21L16 20L15 20L15 19ZM21 20L21 21L20 21L20 22L21 22L21 23L22 23L22 22L24 22L24 21L22 21L22 20ZM18 21L18 22L19 22L19 21ZM21 21L21 22L22 22L22 21ZM0 0L0 7L7 7L7 0ZM1 1L1 6L6 6L6 1ZM2 2L2 5L5 5L5 2ZM18 0L18 7L25 7L25 0ZM19 1L19 6L24 6L24 1ZM20 2L20 5L23 5L23 2ZM0 18L0 25L7 25L7 18ZM1 19L1 24L6 24L6 19ZM2 20L2 23L5 23L5 20Z" fill="#000000"/></g></g></svg>
