<?xml version="1.0" encoding="UTF-8"?>
<svg xmlns="http://www.w3.org/2000/svg" version="1.1" width="100" height="100" viewBox="0 0 100 100"><rect x="0" y="0" width="100" height="100" fill="#ffffff"/><g transform="scale(4)"><g transform="translate(0,0)"><path fill-rule="evenodd" d="M9 0L9 1L10 1L10 2L8 2L8 3L9 3L9 4L10 4L10 5L9 5L9 6L8 6L8 8L4 8L4 9L3 9L3 8L0 8L0 10L1 10L1 11L2 11L2 12L1 12L1 13L3 13L3 12L5 12L5 13L4 13L4 15L3 15L3 14L2 14L2 15L1 15L1 14L0 14L0 15L1 15L1 16L0 16L0 17L1 17L1 16L3 16L3 17L5 17L5 16L6 16L6 17L7 17L7 16L8 16L8 14L9 14L9 13L8 13L8 11L10 11L10 10L12 10L12 8L13 8L13 6L12 6L12 8L11 8L11 6L10 6L10 5L11 5L11 4L12 4L12 3L13 3L13 4L14 4L14 3L15 3L15 5L14 5L14 7L15 7L15 5L16 5L16 3L17 3L17 1L16 1L16 0L15 0L15 2L14 2L14 1L13 1L13 0L12 0L12 1L10 1L10 0ZM11 2L11 3L12 3L12 2ZM13 2L13 3L14 3L14 2ZM15 2L15 3L16 3L16 2ZM9 6L9 7L10 7L10 6ZM16 6L16 7L17 7L17 6ZM9 8L9 10L10 10L10 8ZM16 8L16 9L15 9L15 11L14 11L14 12L12 12L12 11L11 11L11 12L12 12L12 13L11 13L11 15L9 15L9 17L8 17L8 21L9 21L9 22L8 22L8 25L9 25L9 23L10 23L10 25L12 25L12 24L14 24L14 25L15 25L15 24L16 24L16 25L17 25L17 23L18 23L18 22L19 22L19 24L20 24L20 25L21 25L21 24L22 24L22 25L23 25L23 24L24 24L24 25L25 25L25 22L24 22L24 20L25 20L25 18L24 18L24 17L25 17L25 14L23 14L23 15L22 15L22 16L21 16L21 14L20 14L20 16L16 16L16 15L17 15L17 14L18 14L18 15L19 15L19 14L18 14L18 13L17 13L17 12L20 12L20 13L23 13L23 12L25 12L25 11L21 11L21 9L19 9L19 8ZM22 8L22 9L23 9L23 10L24 10L24 9L23 9L23 8ZM1 9L1 10L2 10L2 9ZM4 9L4 10L3 10L3 11L4 11L4 10L5 10L5 11L6 11L6 12L7 12L7 11L6 11L6 10L8 10L8 9ZM13 9L13 10L14 10L14 9ZM17 10L17 11L20 11L20 12L21 12L21 11L20 11L20 10ZM5 13L5 15L6 15L6 16L7 16L7 15L6 15L6 14L8 14L8 13ZM16 13L16 14L13 14L13 15L14 15L14 16L12 16L12 15L11 15L11 16L10 16L10 17L11 17L11 16L12 16L12 18L10 18L10 20L9 20L9 21L10 21L10 22L11 22L11 21L12 21L12 20L13 20L13 21L14 21L14 22L13 22L13 23L14 23L14 22L15 22L15 23L16 23L16 22L18 22L18 21L16 21L16 19L15 19L15 17L16 17L16 16L15 16L15 15L16 15L16 14L17 14L17 13ZM23 15L23 16L22 16L22 18L23 18L23 17L24 17L24 15ZM14 16L14 17L15 17L15 16ZM17 17L17 20L20 20L20 17ZM13 18L13 19L14 19L14 18ZM18 18L18 19L19 19L19 18ZM11 19L11 20L12 20L12 19ZM22 19L22 20L21 20L21 21L22 21L22 22L20 22L20 23L22 23L22 24L23 24L23 23L24 23L24 22L23 22L23 20L24 20L24 19ZM22 22L22 23L23 23L23 22ZM11 23L11 24L12 24L12 23ZM0 0L0 7L7 7L7 0ZM1 1L1 6L6 6L6 1ZM2 2L2 5L5 5L5 2ZM18 0L18 7L25 7L25 0ZM19 1L19 6L24 6L24 1ZM20 2L20 5L23 5L23 2ZM0 18L0 25L7 25L7 18ZM1 19L1 24L6 24L6 19ZM2 20L2 23L5 23L5 20Z" fill="#000000"/></g></g></svg>
