<?xml version="1.0" encoding="UTF-8"?>
<svg xmlns="http://www.w3.org/2000/svg" version="1.1" width="100" height="100" viewBox="0 0 100 100"><rect x="0" y="0" width="100" height="100" fill="#ffffff"/><g transform="scale(4)"><g transform="translate(0,0)"><path fill-rule="evenodd" d="M8 0L8 4L10 4L10 3L11 3L11 4L12 4L12 2L11 2L11 0ZM12 0L12 1L13 1L13 2L15 2L15 3L16 3L16 4L15 4L15 5L14 5L14 4L13 4L13 5L11 5L11 6L10 6L10 7L9 7L9 5L8 5L8 7L9 7L9 8L10 8L10 7L11 7L11 6L12 6L12 8L11 8L11 9L7 9L7 8L4 8L4 9L2 9L2 8L0 8L0 9L1 9L1 10L0 10L0 12L1 12L1 13L0 13L0 14L1 14L1 13L2 13L2 12L1 12L1 11L3 11L3 12L4 12L4 11L5 11L5 10L6 10L6 11L8 11L8 10L11 10L11 11L10 11L10 13L9 13L9 14L10 14L10 15L11 15L11 14L10 14L10 13L11 13L11 12L12 12L12 13L13 13L13 14L15 14L15 15L16 15L16 19L15 19L15 16L13 16L13 15L12 15L12 16L11 16L11 17L12 17L12 18L11 18L11 19L8 19L8 21L9 21L9 23L8 23L8 25L12 25L12 24L13 24L13 25L15 25L15 23L17 23L17 22L18 22L18 23L19 23L19 25L21 25L21 24L24 24L24 25L25 25L25 23L24 23L24 22L25 22L25 21L24 21L24 20L25 20L25 19L24 19L24 20L23 20L23 18L22 18L22 19L21 19L21 17L23 17L23 16L21 16L21 15L22 15L22 9L24 9L24 10L23 10L23 12L25 12L25 8L21 8L21 9L20 9L20 8L19 8L19 10L18 10L18 11L17 11L17 9L16 9L16 11L15 11L15 13L13 13L13 12L14 12L14 10L15 10L15 9L12 9L12 8L13 8L13 6L14 6L14 8L15 8L15 6L16 6L16 8L17 8L17 6L16 6L16 5L17 5L17 2L15 2L15 1L17 1L17 0ZM9 2L9 3L10 3L10 2ZM4 9L4 10L5 10L5 9ZM6 9L6 10L7 10L7 9ZM11 9L11 10L12 10L12 9ZM19 10L19 11L18 11L18 12L17 12L17 11L16 11L16 13L15 13L15 14L17 14L17 15L18 15L18 16L19 16L19 15L21 15L21 14L20 14L20 13L19 13L19 14L18 14L18 12L19 12L19 11L20 11L20 12L21 12L21 10ZM12 11L12 12L13 12L13 11ZM6 12L6 13L7 13L7 14L6 14L6 15L5 15L5 13L4 13L4 14L2 14L2 15L3 15L3 16L4 16L4 15L5 15L5 17L7 17L7 16L8 16L8 15L7 15L7 14L8 14L8 13L7 13L7 12ZM23 13L23 14L25 14L25 13ZM6 15L6 16L7 16L7 15ZM24 15L24 18L25 18L25 15ZM0 16L0 17L2 17L2 16ZM12 16L12 17L13 17L13 18L14 18L14 17L13 17L13 16ZM8 17L8 18L9 18L9 17ZM17 17L17 20L20 20L20 17ZM18 18L18 19L19 19L19 18ZM12 19L12 20L11 20L11 24L12 24L12 23L13 23L13 24L14 24L14 23L15 23L15 22L13 22L13 21L12 21L12 20L13 20L13 19ZM14 19L14 21L16 21L16 20L15 20L15 19ZM9 20L9 21L10 21L10 20ZM21 20L21 21L20 21L20 22L21 22L21 23L22 23L22 22L24 22L24 21L22 21L22 20ZM18 21L18 22L19 22L19 21ZM21 21L21 22L22 22L22 21ZM9 23L9 24L10 24L10 23ZM0 0L0 7L7 7L7 0ZM1 1L1 6L6 6L6 1ZM2 2L2 5L5 5L5 2ZM18 0L18 7L25 7L25 0ZM19 1L19 6L24 6L24 1ZM20 2L20 5L23 5L23 2ZM0 18L0 25L7 25L7 18ZM1 19L1 24L6 24L6 19ZM2 20L2 23L5 23L5 20Z" fill="#000000"/></g></g></svg>
