<?xml version="1.0" encoding="UTF-8"?>
<svg xmlns="http://www.w3.org/2000/svg" version="1.1" width="100" height="100" viewBox="0 0 100 100"><rect x="0" y="0" width="100" height="100" fill="#ffffff"/><g transform="scale(4)"><g transform="translate(0,0)"><path fill-rule="evenodd" d="M11 0L11 1L9 1L9 2L11 2L11 1L15 1L15 0ZM12 2L12 4L13 4L13 2ZM15 2L15 3L14 3L14 5L15 5L15 6L14 6L14 10L13 10L13 9L12 9L12 7L13 7L13 5L11 5L11 6L10 6L10 8L9 8L9 10L10 10L10 11L9 11L9 12L8 12L8 11L7 11L7 10L5 10L5 9L8 9L8 8L5 8L5 9L2 9L2 8L0 8L0 9L1 9L1 12L0 12L0 17L1 17L1 14L2 14L2 16L4 16L4 15L7 15L7 14L8 14L8 13L9 13L9 14L10 14L10 15L11 15L11 17L10 17L10 18L9 18L9 17L8 17L8 20L9 20L9 19L12 19L12 21L13 21L13 20L14 20L14 22L15 22L15 23L14 23L14 24L13 24L13 25L18 25L18 24L19 24L19 25L20 25L20 24L23 24L23 25L25 25L25 24L23 24L23 23L21 23L21 22L19 22L19 23L18 23L18 21L22 21L22 22L23 22L23 21L24 21L24 23L25 23L25 21L24 21L24 19L25 19L25 16L24 16L24 15L25 15L25 13L24 13L24 12L23 12L23 9L22 9L22 8L20 8L20 9L18 9L18 10L17 10L17 11L16 11L16 13L18 13L18 16L16 16L16 14L15 14L15 13L14 13L14 16L15 16L15 17L16 17L16 18L15 18L15 19L16 19L16 20L14 20L14 19L12 19L12 18L14 18L14 17L12 17L12 15L13 15L13 14L10 14L10 11L11 11L11 10L10 10L10 8L11 8L11 9L12 9L12 10L13 10L13 11L12 11L12 12L11 12L11 13L13 13L13 11L15 11L15 9L16 9L16 7L17 7L17 6L16 6L16 5L17 5L17 3L16 3L16 2ZM8 3L8 5L10 5L10 4L9 4L9 3ZM15 4L15 5L16 5L16 4ZM8 6L8 7L9 7L9 6ZM11 6L11 7L12 7L12 6ZM15 6L15 7L16 7L16 6ZM20 9L20 10L19 10L19 12L21 12L21 13L20 13L20 14L19 14L19 15L20 15L20 16L21 16L21 20L23 20L23 19L24 19L24 16L23 16L23 15L22 15L22 16L21 16L21 13L22 13L22 14L23 14L23 13L22 13L22 11L20 11L20 10L21 10L21 9ZM24 9L24 10L25 10L25 9ZM2 10L2 12L1 12L1 13L2 13L2 12L3 12L3 10ZM4 10L4 11L5 11L5 12L4 12L4 14L7 14L7 13L8 13L8 12L7 12L7 11L5 11L5 10ZM17 11L17 12L18 12L18 11ZM5 12L5 13L7 13L7 12ZM5 16L5 17L7 17L7 16ZM22 16L22 17L23 17L23 16ZM11 17L11 18L12 18L12 17ZM17 17L17 20L20 20L20 17ZM18 18L18 19L19 19L19 18ZM22 18L22 19L23 19L23 18ZM10 20L10 21L9 21L9 23L8 23L8 25L10 25L10 24L12 24L12 23L13 23L13 22L11 22L11 20ZM16 22L16 23L15 23L15 24L16 24L16 23L17 23L17 22ZM19 23L19 24L20 24L20 23ZM0 0L0 7L7 7L7 0ZM1 1L1 6L6 6L6 1ZM2 2L2 5L5 5L5 2ZM18 0L18 7L25 7L25 0ZM19 1L19 6L24 6L24 1ZM20 2L20 5L23 5L23 2ZM0 18L0 25L7 25L7 18ZM1 19L1 24L6 24L6 19ZM2 20L2 23L5 23L5 20Z" fill="#000000"/></g></g></svg>
