<?xml version="1.0" encoding="UTF-8"?>
<svg xmlns="http://www.w3.org/2000/svg" version="1.1" width="100" height="100" viewBox="0 0 100 100"><rect x="0" y="0" width="100" height="100" fill="#ffffff"/><g transform="scale(4)"><g transform="translate(0,0)"><path fill-rule="evenodd" d="M11 0L11 1L9 1L9 2L11 2L11 1L13 1L13 0ZM14 0L14 1L15 1L15 2L14 2L14 3L13 3L13 2L12 2L12 4L14 4L14 5L11 5L11 6L10 6L10 8L9 8L9 9L8 9L8 8L5 8L5 9L2 9L2 8L0 8L0 11L1 11L1 13L0 13L0 17L1 17L1 13L3 13L3 12L4 12L4 13L7 13L7 14L6 14L6 15L7 15L7 14L9 14L9 15L8 15L8 20L9 20L9 19L10 19L10 20L11 20L11 19L12 19L12 21L13 21L13 20L14 20L14 22L15 22L15 23L14 23L14 24L13 24L13 25L17 25L17 24L19 24L19 25L25 25L25 24L20 24L20 23L22 23L22 22L23 22L23 21L24 21L24 23L25 23L25 21L24 21L24 19L25 19L25 16L24 16L24 15L25 15L25 13L24 13L24 12L23 12L23 9L22 9L22 8L20 8L20 9L17 9L17 11L16 11L16 13L17 13L17 14L19 14L19 16L16 16L16 19L15 19L15 20L14 20L14 19L12 19L12 18L14 18L14 17L12 17L12 15L13 15L13 14L14 14L14 16L15 16L15 15L16 15L16 14L15 14L15 12L14 12L14 13L13 13L13 11L14 11L14 10L15 10L15 9L16 9L16 7L17 7L17 6L16 6L16 5L17 5L17 3L16 3L16 1L17 1L17 0ZM8 3L8 5L10 5L10 4L9 4L9 3ZM15 4L15 5L14 5L14 6L13 6L13 7L12 7L12 6L11 6L11 7L12 7L12 9L11 9L11 8L10 8L10 10L7 10L7 9L5 9L5 10L3 10L3 11L2 11L2 10L1 10L1 11L2 11L2 12L3 12L3 11L4 11L4 12L7 12L7 13L9 13L9 14L13 14L13 13L11 13L11 12L12 12L12 11L13 11L13 10L14 10L14 6L15 6L15 7L16 7L16 6L15 6L15 5L16 5L16 4ZM8 6L8 7L9 7L9 6ZM12 9L12 10L13 10L13 9ZM20 9L20 10L19 10L19 13L20 13L20 12L21 12L21 13L22 13L22 14L23 14L23 13L22 13L22 11L21 11L21 9ZM24 9L24 10L25 10L25 9ZM6 10L6 11L7 11L7 12L8 12L8 11L7 11L7 10ZM10 10L10 11L9 11L9 13L10 13L10 11L11 11L11 10ZM17 11L17 12L18 12L18 11ZM2 14L2 15L3 15L3 16L2 16L2 17L3 17L3 16L4 16L4 17L7 17L7 16L5 16L5 14L4 14L4 15L3 15L3 14ZM10 15L10 16L11 16L11 15ZM20 15L20 16L21 16L21 20L23 20L23 19L24 19L24 16L23 16L23 15L22 15L22 16L21 16L21 15ZM22 16L22 17L23 17L23 16ZM10 17L10 18L12 18L12 17ZM17 17L17 20L20 20L20 17ZM18 18L18 19L19 19L19 18ZM22 18L22 19L23 19L23 18ZM15 20L15 21L16 21L16 22L17 22L17 21L16 21L16 20ZM9 21L9 23L8 23L8 25L9 25L9 23L10 23L10 24L12 24L12 23L13 23L13 22L11 22L11 23L10 23L10 21ZM19 21L19 22L18 22L18 23L19 23L19 22L22 22L22 21ZM15 23L15 24L17 24L17 23ZM0 0L0 7L7 7L7 0ZM1 1L1 6L6 6L6 1ZM2 2L2 5L5 5L5 2ZM18 0L18 7L25 7L25 0ZM19 1L19 6L24 6L24 1ZM20 2L20 5L23 5L23 2ZM0 18L0 25L7 25L7 18ZM1 19L1 24L6 24L6 19ZM2 20L2 23L5 23L5 20Z" fill="#000000"/></g></g></svg>
